#File generated from solving marker data for model walk1.trc
name solved_motion
datacolumns 107
datarows 8
range 0.5000000000 0.5580000000
units unknown
enforce_loops no
enforce_constraints no
endheader

time	lower_torso_TX	lower_torso_TY	lower_torso_TZ	lower_torso_RX	lower_torso_RY	lower_torso_RZ	lumbar_roll	lumbar_yaw	lumbar_pitch	neck_roll	neck_yaw	neck_pitch	arm_add_r	arm_rot_r	arm_flex_r	elbow_flex_r	pro_sup_r	wrist_dev_r	wrist_flex_r	arm_add_l	arm_rot_l	arm_flex_l	elbow_flex_l	pro_sup_l	wrist_dev_l	wrist_flex_l	hip_add_r	hip_rot_r	hip_flex_r	ankle_flex_r	subt_angle_r	toe_angle_r	hip_add_l	hip_rot_l	hip_flex_l	knee_flex_l	ankle_flex_l	subt_angle_l	toe_angle_l	knee_flex_r	R.Shoulder_px	R.Shoulder_py	R.Shoulder_pz	R.Scapula_px	R.Scapula_py	R.Scapula_pz	L.Shoulder_px	L.Shoulder_py	L.Shoulder_pz	R.ASIS_px	R.ASIS_py	R.ASIS_pz	V.Sacral_px	V.Sacral_py	V.Sacral_pz	L.ASIS_px	L.ASIS_py	L.ASIS_pz	R.Elbow_px	R.Elbow_py	R.Elbow_pz	R.Wrist_px	R.Wrist_py	R.Wrist_pz	L.Elbow_px	L.Elbow_py	L.Elbow_pz	L.Wrist_px	L.Wrist_py	L.Wrist_pz	R.Thigh_px	R.Thigh_py	R.Thigh_pz	R.Knee_px	R.Knee_py	R.Knee_pz	R.Shank_px	R.Shank_py	R.Shank_pz	R.Ankle_px	R.Ankle_py	R.Ankle_pz	R.Heel_px	R.Heel_py	R.Heel_pz	R.Toe_px	R.Toe_py	R.Toe_pz	L.Thigh_px	L.Thigh_py	L.Thigh_pz	L.Knee_px	L.Knee_py	L.Knee_pz	L.Shank_px	L.Shank_py	L.Shank_pz	L.Ankle_px	L.Ankle_py	L.Ankle_pz	L.Heel_px	L.Heel_py	L.Heel_pz	L.Toe_px	L.Toe_py	L.Toe_pz	
0.5000000000	-1.0271739465	0.2889397210	0.7285866116	92.6724607891	-5.1529730023	5.3271819519	-0.3902032282	2.9861465126	-27.5181640652	0.0000000000	0.0000000000	0.0000000000	-41.9262218253	-10.0000000000	13.5146738219	35.9757354469	66.2381651066	0.0000000000	0.0000000000	-28.4187772227	10.0000000000	14.5892281945	47.7540834011	50.0000000000	0.0000000000	0.0000000000	2.8558012084	17.6866614031	39.6929342858	30.0000000000	11.6118337343	0.0000000000	-0.1660641935	10.7440415423	36.2630719778	108.5990891714	9.2472478774	15.9295194169	0.0000000000	94.0445383825	-0.9868759800	0.0401011700	1.1102242400	-1.1524768100	0.1830480200	1.1260617700	-1.0006666900	0.4921404100	1.1655865500	-1.0039503800	0.1489830200	0.7478431400	-1.2268704800	0.3047489600	0.7999198600	-0.9952354700	0.4272991900	0.7385031700	-1.0858869600	-0.1084260600	0.8979081400	-0.9009807700	-0.2189602400	0.7735671400	-1.0460786100	0.6363411300	0.9217026400	-0.8593225100	0.6576086400	0.7489990200	-0.9260047000	0.0739899600	0.4387201200	-0.8451998900	0.1617356400	0.3325671700	-0.9517620200	0.0622919200	0.1897589300	-1.1461945800	0.0860266500	0.0721788600	-1.2136135300	0.1062817100	0.0874151800	-1.0585058600	0.1548126200	0.0427132800	-0.8809974400	0.5137044700	0.4032205500	-0.8507504900	0.4353157000	0.3367280600	-1.0730760500	0.5784736300	0.2141965900	-1.2095631100	0.5446405000	0.1677209200	-1.2721854200	0.5226048600	0.2152487300	-1.1729890100	0.4871969900	0.0748783400	
0.5080000000	-1.0214064596	0.2882993503	0.7298750432	92.6653498400	-5.4464020978	5.6630659794	-0.4032292516	3.2396225481	-28.0712107116	0.0000000000	0.0000000000	0.0000000000	-41.8535834358	-10.0000000000	13.9213620312	39.8559415190	50.0000000026	0.0000000000	0.0000000000	-28.0991761690	10.0000000000	14.4959774774	46.4483165508	50.0000000000	0.0000000000	0.0000000000	3.0002714463	17.7234281205	38.8772965171	30.0000000000	12.3914195068	0.0000000000	-0.2748315726	10.3727321364	36.7787561419	108.7319088376	10.0579974364	14.8703860348	-0.0010000000	93.9191903721	-0.9813082300	0.0370079900	1.1122902800	-1.1456068100	0.1812245300	1.1266695600	-0.9927771000	0.4928605000	1.1671038800	-0.9992966300	0.1473634900	0.7486327500	-1.2210227100	0.3051713600	0.8006163300	-0.9887586700	0.4265260000	0.7398976400	-1.0768648700	-0.1108955700	0.8984080800	-0.8895051900	-0.2189290600	0.7751455100	-1.0410202600	0.6354416500	0.9225589600	-0.8570993700	0.6598103000	0.7453151200	-0.9211926900	0.0752640500	0.4372915000	-0.8432856400	0.1605752600	0.3306687300	-0.9503424100	0.0626247400	0.1896517500	-1.1433819600	0.0883128900	0.0717860000	-1.2108803700	0.1072973900	0.0875473100	-1.0585058600	0.1548126200	0.0427132800	-0.8722966900	0.5121021700	0.4060650600	-0.8416228000	0.4341706500	0.3405300000	-1.0584843800	0.5753581500	0.2160711700	-1.1991727300	0.5442450000	0.1687877500	-1.2585827600	0.5189240700	0.2118884400	-1.1559218800	0.4848756400	0.0744437700	
0.5170000000	-1.0144271686	0.2871762437	0.7300426764	92.5610514408	-5.6226774821	5.6703215608	-0.4460195202	3.7233179138	-27.8708778141	0.0000000000	0.0000000000	0.0000000000	-42.1785247912	-10.0000000000	14.0185420239	39.8774486584	50.0000000026	0.0000000000	0.0000000000	-27.8527847754	10.0000000000	13.9157678774	46.1922198962	50.0000000000	0.0000000000	0.0000000000	2.9133124820	17.5302892198	38.2201857479	30.0000000000	12.4084588132	0.0000000000	-0.2728963650	10.3387171487	37.7157038542	108.6469554712	10.1260602160	14.8660784013	-0.0020000000	93.9513273524	-0.9737075800	0.0386534000	1.1107531700	-1.1396951900	0.1803716700	1.1272434100	-0.9903700600	0.4907271700	1.1692069100	-0.9931492300	0.1474494000	0.7485784900	-1.2149377400	0.3046028400	0.8009585600	-0.9813718900	0.4252959900	0.7397585400	-1.0677586700	-0.1125861200	0.8991557000	-0.8782573200	-0.2191711000	0.7777144800	-1.0369992700	0.6339545300	0.9245722000	-0.8569434800	0.6612699600	0.7435591400	-0.9181659500	0.0751812200	0.4357068800	-0.8425340600	0.1576071200	0.3285259400	-0.9520914900	0.0599732500	0.1891008800	-1.1432970000	0.0869833400	0.0728553800	-1.2109406700	0.1069945400	0.0894093900	-1.0585058600	0.1548126200	0.0427132800	-0.8592576300	0.5089156200	0.4103295900	-0.8304909100	0.4321211200	0.3443986200	-1.0421799300	0.5735886200	0.2158245400	-1.1845787400	0.5419838300	0.1668820300	-1.2430946000	0.5160139800	0.2076243300	-1.1385466300	0.4816755100	0.0735010400	
0.5250000000	-1.0075020696	0.2868149881	0.7298235898	92.5074840662	-6.1253759183	5.0677867019	-0.4392430482	3.8403367957	-27.2073998601	0.0000000000	0.0000000000	0.0000000000	-42.4183820543	-10.0000000000	15.7459624096	38.5713781945	50.0000000026	0.0000000000	0.0000000000	-27.2609118379	10.0000000000	13.0558553987	44.9975982906	50.0000000000	0.0000000000	0.0000000000	3.1381480195	17.7990240966	38.3458273683	30.0000000000	12.0675457254	0.0000000000	-0.5678354703	9.6120589477	39.5212950642	108.5487185815	10.7348640954	13.5363416803	-0.0030000000	94.0639106406	-0.9695289300	0.0354854000	1.1128252000	-1.1328404500	0.1803189500	1.1276444100	-0.9806983000	0.4905372300	1.1681179200	-0.9875397900	0.1467591100	0.7485236200	-1.2087043500	0.3047776800	0.8018480800	-0.9731561900	0.4247198500	0.7392388300	-1.0544482400	-0.1128332800	0.8987150300	-0.8671798700	-0.2191343500	0.7807289400	-1.0325992400	0.6336256100	0.9252238800	-0.8578451500	0.6618353300	0.7406632100	-0.9153247100	0.0742663300	0.4342941300	-0.8407459700	0.1568043100	0.3282472800	-0.9480918000	0.0603621200	0.1880617100	-1.1421131600	0.0876801100	0.0742928600	-1.2139986600	0.1072982700	0.0923059000	-1.0582121600	0.1545947400	0.0429037900	-0.8496249400	0.5080952800	0.4137641300	-0.8150689100	0.4295543800	0.3489784500	-1.0299522700	0.5700532800	0.2189568800	-1.1669627700	0.5369335900	0.1624706400	-1.2292891800	0.5129005100	0.2048120600	-1.1184729000	0.4788029500	0.0721886900	
0.5330000000	-1.0010903805	0.2866860491	0.7304740020	92.5774208331	-6.5444483446	5.0335361673	-0.4497828597	4.1537240561	-27.1620995910	0.0000000000	0.0000000000	0.0000000000	-43.0297237946	-10.0000000000	16.5044025002	38.5515499826	50.0000000026	0.0000000000	0.0000000000	-27.2864326598	10.0000000000	12.7041932869	43.3095090095	50.0000000000	0.0000000000	0.0000000000	3.0475530383	17.9899305960	37.9535766746	30.0000000000	12.4159545181	0.0000000000	-0.1040119791	9.4786383788	40.3856392760	108.3107480055	11.5556188994	15.3016472124	-0.0040000000	94.1362500351	-0.9647327900	0.0322054300	1.1142031300	-1.1264683800	0.1794578100	1.1284228500	-0.9725576800	0.4888408500	1.1679836400	-0.9834789400	0.1463158000	0.7494415300	-1.2032396200	0.3052301900	0.8030082400	-0.9656876800	0.4243938000	0.7400191700	-1.0452369400	-0.1138792900	0.8988526000	-0.8551577100	-0.2201183000	0.7832323000	-1.0280155000	0.6332645300	0.9264658800	-0.8571063800	0.6686654100	0.7402740500	-0.9129016700	0.0734863000	0.4335726000	-0.8387934600	0.1552758800	0.3266468200	-0.9450269800	0.0597572600	0.1865417600	-1.1419060100	0.0882589600	0.0760227300	-1.2140969200	0.1070858900	0.0941903300	-1.0568765900	0.1546163800	0.0434460300	-0.8385852100	0.5044044200	0.4185540500	-0.8034851100	0.4237247300	0.3527291900	-1.0149470800	0.5679090000	0.2190798000	-1.1502094700	0.5335394900	0.1591277500	-1.2145813000	0.5130755000	0.2004977000	-1.1022479200	0.4735065000	0.0732198200	
0.5420000000	-0.9962822503	0.2847410073	0.7313391450	92.5906119368	-6.6053490257	5.1992915157	-0.8420565177	4.4865673693	-27.5386865625	0.0000000000	0.0000000000	0.0000000000	-43.0077678875	-10.0000000000	16.8490828056	38.6902980980	50.0000000026	0.0000000000	0.0000000000	-27.4601539260	10.0000000000	12.6611611051	43.1679062224	50.0000000000	0.0000000000	0.0000000000	3.1504036023	17.8029659649	37.4951906503	30.0000000000	12.4112877452	0.0000000000	0.0252368361	9.6198708819	41.3519360504	108.0133781481	11.5958485903	15.2773032346	-0.0050000000	94.3995868139	-0.9591791400	0.0326224900	1.1160607900	-1.1201251200	0.1792441600	1.1295930200	-0.9679423800	0.4894342700	1.1680662800	-0.9789145500	0.1449595800	0.7499000200	-1.1972872300	0.3066068700	0.8034245000	-0.9607686200	0.4223197900	0.7409230300	-1.0348372800	-0.1151561400	0.8987611100	-0.8433165900	-0.2183541900	0.7856326300	-1.0241201200	0.6326113900	0.9280307000	-0.8551480100	0.6717138700	0.7373310500	-0.9099526400	0.0726792500	0.4319033800	-0.8326947600	0.1557645400	0.3245829800	-0.9457666600	0.0592973600	0.1871282200	-1.1395040300	0.0894418700	0.0767883000	-1.2138143300	0.1076396900	0.0977226200	-1.0560896000	0.1546050700	0.0437578200	-0.8288400300	0.5014488800	0.4227160900	-0.7982379200	0.4203561100	0.3602973300	-0.9993005400	0.5631156000	0.2202298600	-1.1331536900	0.5312734400	0.1565605200	-1.1993161600	0.5102654100	0.1971819800	-1.0837918700	0.4710952500	0.0725809200	
0.5500000000	-0.9901621906	0.2848255202	0.7324788296	92.7115778918	-7.2367245972	5.4097405201	-1.0894885871	5.0694403084	-27.7291992325	0.0000000000	0.0000000000	0.0000000000	-43.5039040890	-10.0000000000	17.4352448570	38.7203544607	50.0000000026	0.0000000000	0.0000000000	-27.2210560141	10.0000000000	11.9829216555	42.4065173389	50.0000000000	0.0000000000	0.0000000000	3.2527190718	18.3897803214	36.6861492029	30.0000000000	12.4314282515	0.0000000000	-0.0051083946	8.9284276195	42.2380287355	107.6947838216	11.7203406669	14.8933963965	-0.0060000000	94.0828825653	-0.9508318500	0.0333866700	1.1167204600	-1.1140745800	0.1786528800	1.1295916700	-0.9620286900	0.4895355200	1.1695510300	-0.9746850600	0.1440080900	0.7509682000	-1.1903499800	0.3073824800	0.8041335400	-0.9531671800	0.4221017500	0.7424494600	-1.0254152800	-0.1163591800	0.8995438800	-0.8326035800	-0.2179518300	0.7873868400	-1.0217554300	0.6339200400	0.9290914900	-0.8565231300	0.6739273100	0.7362324800	-0.9068557100	0.0735317400	0.4310170900	-0.8335213000	0.1539238600	0.3229826700	-0.9430557900	0.0591192700	0.1857305000	-1.1397174100	0.0898544500	0.0770484800	-1.2098774400	0.1082106300	0.0963596400	-1.0564163800	0.1544341300	0.0438600700	-0.8144841900	0.4979139100	0.4267816800	-0.7832318100	0.4187159100	0.3656840500	-0.9826501500	0.5625751300	0.2204074600	-1.1150990000	0.5279134500	0.1534350000	-1.1833619400	0.5076844800	0.1925547900	-1.0643781700	0.4678395100	0.0713803100	
0.5580000000	-0.9854820066	0.2850794689	0.7331097714	92.8415960136	-7.2458647701	5.6330613493	-1.3093740182	5.6512063409	-28.3951062969	0.0000000000	0.0000000000	0.0000000000	-44.3250901804	-10.0000000000	16.9499597841	40.2417200624	50.0000000026	0.0000000000	0.0000000000	-26.9198807862	10.0000000000	12.2619453283	41.4013072213	50.0000000000	0.0000000000	0.0000000000	2.7855487859	18.3059394942	36.0850323351	30.0000000000	13.2107168147	0.0000000000	0.7237579491	9.1305251776	43.1952910030	107.3601742235	12.3478900242	12.3468961038	-0.0070000000	94.1366354243	-0.9386649800	0.0350727800	1.1146678500	-1.1065039100	0.1778303100	1.1304968300	-0.9568613900	0.4906244200	1.1703807400	-0.9698895300	0.1424028900	0.7509638700	-1.1847596400	0.3086293600	0.8044642300	-0.9485611000	0.4223135100	0.7434302400	-1.0185102500	-0.1178877800	0.9005923500	-0.8187206400	-0.2166706100	0.7886951900	-1.0183938000	0.6330275300	0.9311953100	-0.8574775400	0.6771868900	0.7339261500	-0.9044196800	0.0725466200	0.4302842700	-0.8299423200	0.1531541600	0.3215725400	-0.9429507400	0.0582354600	0.1850438800	-1.1405806900	0.0890167200	0.0784529000	-1.2097002000	0.1080578000	0.0969415900	-1.0564163800	0.1544341300	0.0438600700	-0.8011581400	0.4951546600	0.4308642000	-0.7698305100	0.4141938800	0.3687939500	-0.9686432500	0.5605042100	0.2212510100	-1.0949560500	0.5250493200	0.1493560900	-1.1699879200	0.5071489000	0.1896279000	-1.0435585900	0.4657401400	0.0706985500	
